<?xml version="1.0" encoding="utf-8"?>
<svg xmlns="http://www.w3.org/2000/svg" xmlns:xlink="http://www.w3.org/1999/xlink" width="600" height="400" viewBox="0 0 2400 1600">
<defs>
  <clipPath id="clip2600">
    <rect x="0" y="0" width="2000" height="2000"/>
  </clipPath>
</defs>
<defs>
  <clipPath id="clip2601">
    <rect x="0" y="0" width="2400" height="1600"/>
  </clipPath>
</defs>
<polygon clip-path="url(#clip2601)" points="
0,1600 2400,1600 2400,0 0,0 
  " fill="#ffffff" fill-rule="evenodd" fill-opacity="1"/>
<defs>
  <clipPath id="clip2602">
    <rect x="480" y="0" width="1681" height="1600"/>
  </clipPath>
</defs>
<polygon clip-path="url(#clip2601)" points="
121.251,1503.47 2321.26,1503.47 2321.26,47.2441 121.251,47.2441 
  " fill="#ffffff" fill-rule="evenodd" fill-opacity="1"/>
<defs>
  <clipPath id="clip2603">
    <rect x="121" y="47" width="2201" height="1457"/>
  </clipPath>
</defs>
<polyline clip-path="url(#clip2603)" style="stroke:#000000; stroke-width:2; stroke-opacity:0.1; fill:none" points="
  466.535,1503.47 466.535,47.2441 
  "/>
<polyline clip-path="url(#clip2603)" style="stroke:#000000; stroke-width:2; stroke-opacity:0.1; fill:none" points="
  938.235,1503.47 938.235,47.2441 
  "/>
<polyline clip-path="url(#clip2603)" style="stroke:#000000; stroke-width:2; stroke-opacity:0.1; fill:none" points="
  1409.94,1503.47 1409.94,47.2441 
  "/>
<polyline clip-path="url(#clip2603)" style="stroke:#000000; stroke-width:2; stroke-opacity:0.1; fill:none" points="
  1881.64,1503.47 1881.64,47.2441 
  "/>
<polyline clip-path="url(#clip2603)" style="stroke:#000000; stroke-width:2; stroke-opacity:0.1; fill:none" points="
  121.251,1462.26 2321.26,1462.26 
  "/>
<polyline clip-path="url(#clip2603)" style="stroke:#000000; stroke-width:2; stroke-opacity:0.1; fill:none" points="
  121.251,1233.29 2321.26,1233.29 
  "/>
<polyline clip-path="url(#clip2603)" style="stroke:#000000; stroke-width:2; stroke-opacity:0.1; fill:none" points="
  121.251,1004.33 2321.26,1004.33 
  "/>
<polyline clip-path="url(#clip2603)" style="stroke:#000000; stroke-width:2; stroke-opacity:0.1; fill:none" points="
  121.251,775.359 2321.26,775.359 
  "/>
<polyline clip-path="url(#clip2603)" style="stroke:#000000; stroke-width:2; stroke-opacity:0.1; fill:none" points="
  121.251,546.392 2321.26,546.392 
  "/>
<polyline clip-path="url(#clip2603)" style="stroke:#000000; stroke-width:2; stroke-opacity:0.1; fill:none" points="
  121.251,317.425 2321.26,317.425 
  "/>
<polyline clip-path="url(#clip2603)" style="stroke:#000000; stroke-width:2; stroke-opacity:0.1; fill:none" points="
  121.251,88.4582 2321.26,88.4582 
  "/>
<polyline clip-path="url(#clip2601)" style="stroke:#000000; stroke-width:4; stroke-opacity:1; fill:none" points="
  121.251,1503.47 2321.26,1503.47 
  "/>
<polyline clip-path="url(#clip2601)" style="stroke:#000000; stroke-width:4; stroke-opacity:1; fill:none" points="
  121.251,1503.47 121.251,47.2441 
  "/>
<polyline clip-path="url(#clip2601)" style="stroke:#000000; stroke-width:4; stroke-opacity:1; fill:none" points="
  466.535,1503.47 466.535,1481.63 
  "/>
<polyline clip-path="url(#clip2601)" style="stroke:#000000; stroke-width:4; stroke-opacity:1; fill:none" points="
  938.235,1503.47 938.235,1481.63 
  "/>
<polyline clip-path="url(#clip2601)" style="stroke:#000000; stroke-width:4; stroke-opacity:1; fill:none" points="
  1409.94,1503.47 1409.94,1481.63 
  "/>
<polyline clip-path="url(#clip2601)" style="stroke:#000000; stroke-width:4; stroke-opacity:1; fill:none" points="
  1881.64,1503.47 1881.64,1481.63 
  "/>
<polyline clip-path="url(#clip2601)" style="stroke:#000000; stroke-width:4; stroke-opacity:1; fill:none" points="
  121.251,1462.26 154.251,1462.26 
  "/>
<polyline clip-path="url(#clip2601)" style="stroke:#000000; stroke-width:4; stroke-opacity:1; fill:none" points="
  121.251,1233.29 154.251,1233.29 
  "/>
<polyline clip-path="url(#clip2601)" style="stroke:#000000; stroke-width:4; stroke-opacity:1; fill:none" points="
  121.251,1004.33 154.251,1004.33 
  "/>
<polyline clip-path="url(#clip2601)" style="stroke:#000000; stroke-width:4; stroke-opacity:1; fill:none" points="
  121.251,775.359 154.251,775.359 
  "/>
<polyline clip-path="url(#clip2601)" style="stroke:#000000; stroke-width:4; stroke-opacity:1; fill:none" points="
  121.251,546.392 154.251,546.392 
  "/>
<polyline clip-path="url(#clip2601)" style="stroke:#000000; stroke-width:4; stroke-opacity:1; fill:none" points="
  121.251,317.425 154.251,317.425 
  "/>
<polyline clip-path="url(#clip2601)" style="stroke:#000000; stroke-width:4; stroke-opacity:1; fill:none" points="
  121.251,88.4582 154.251,88.4582 
  "/>
<g clip-path="url(#clip2601)">
<text style="fill:#000000; fill-opacity:1; font-family:Arial,Helvetica Neue,Helvetica,sans-serif; font-size:48px; text-anchor:middle;" transform="rotate(0, 466.535, 1557.47)" x="466.535" y="1557.47">2.5</text>
</g>
<g clip-path="url(#clip2601)">
<text style="fill:#000000; fill-opacity:1; font-family:Arial,Helvetica Neue,Helvetica,sans-serif; font-size:48px; text-anchor:middle;" transform="rotate(0, 938.235, 1557.47)" x="938.235" y="1557.47">5.0</text>
</g>
<g clip-path="url(#clip2601)">
<text style="fill:#000000; fill-opacity:1; font-family:Arial,Helvetica Neue,Helvetica,sans-serif; font-size:48px; text-anchor:middle;" transform="rotate(0, 1409.94, 1557.47)" x="1409.94" y="1557.47">7.5</text>
</g>
<g clip-path="url(#clip2601)">
<text style="fill:#000000; fill-opacity:1; font-family:Arial,Helvetica Neue,Helvetica,sans-serif; font-size:48px; text-anchor:middle;" transform="rotate(0, 1881.64, 1557.47)" x="1881.64" y="1557.47">10.0</text>
</g>
<g clip-path="url(#clip2601)">
<text style="fill:#000000; fill-opacity:1; font-family:Arial,Helvetica Neue,Helvetica,sans-serif; font-size:48px; text-anchor:end;" transform="rotate(0, 97.2505, 1479.76)" x="97.2505" y="1479.76">0</text>
</g>
<g clip-path="url(#clip2601)">
<text style="fill:#000000; fill-opacity:1; font-family:Arial,Helvetica Neue,Helvetica,sans-serif; font-size:48px; text-anchor:end;" transform="rotate(0, 97.2505, 1250.79)" x="97.2505" y="1250.79">1</text>
</g>
<g clip-path="url(#clip2601)">
<text style="fill:#000000; fill-opacity:1; font-family:Arial,Helvetica Neue,Helvetica,sans-serif; font-size:48px; text-anchor:end;" transform="rotate(0, 97.2505, 1021.83)" x="97.2505" y="1021.83">2</text>
</g>
<g clip-path="url(#clip2601)">
<text style="fill:#000000; fill-opacity:1; font-family:Arial,Helvetica Neue,Helvetica,sans-serif; font-size:48px; text-anchor:end;" transform="rotate(0, 97.2505, 792.859)" x="97.2505" y="792.859">3</text>
</g>
<g clip-path="url(#clip2601)">
<text style="fill:#000000; fill-opacity:1; font-family:Arial,Helvetica Neue,Helvetica,sans-serif; font-size:48px; text-anchor:end;" transform="rotate(0, 97.2505, 563.892)" x="97.2505" y="563.892">4</text>
</g>
<g clip-path="url(#clip2601)">
<text style="fill:#000000; fill-opacity:1; font-family:Arial,Helvetica Neue,Helvetica,sans-serif; font-size:48px; text-anchor:end;" transform="rotate(0, 97.2505, 334.925)" x="97.2505" y="334.925">5</text>
</g>
<g clip-path="url(#clip2601)">
<text style="fill:#000000; fill-opacity:1; font-family:Arial,Helvetica Neue,Helvetica,sans-serif; font-size:48px; text-anchor:end;" transform="rotate(0, 97.2505, 105.958)" x="97.2505" y="105.958">6</text>
</g>
<polyline clip-path="url(#clip2603)" style="stroke:#009af9; stroke-width:4; stroke-opacity:1; fill:none" points="
  183.515,1462.26 372.195,1233.29 560.875,1004.33 749.555,546.392 938.235,317.425 1126.92,1004.33 1315.6,775.359 1504.28,1233.29 1692.96,1462.26 1881.64,1462.26 
  
  "/>
<polyline clip-path="url(#clip2603)" style="stroke:#e26f46; stroke-width:4; stroke-opacity:1; fill:none" points="
  183.515,1004.33 372.195,546.392 560.875,317.425 749.555,88.4582 938.235,88.4582 1126.92,317.425 1315.6,317.425 1504.28,546.392 1692.96,775.359 1881.64,1233.29 
  2070.32,1462.26 2259,1462.26 
  "/>
<polyline clip-path="url(#clip2603)" style="stroke:#000000; stroke-width:4; stroke-opacity:1; fill:none" points="
  183.515,1462.26 183.515,1004.33 
  "/>
<polyline clip-path="url(#clip2603)" style="stroke:#000000; stroke-width:4; stroke-opacity:1; fill:none" points="
  372.195,1233.29 183.515,1004.33 
  "/>
<polyline clip-path="url(#clip2603)" style="stroke:#000000; stroke-width:4; stroke-opacity:1; fill:none" points="
  560.875,1004.33 183.515,1004.33 
  "/>
<polyline clip-path="url(#clip2603)" style="stroke:#000000; stroke-width:4; stroke-opacity:1; fill:none" points="
  749.555,546.392 372.195,546.392 
  "/>
<polyline clip-path="url(#clip2603)" style="stroke:#000000; stroke-width:4; stroke-opacity:1; fill:none" points="
  938.235,317.425 560.875,317.425 
  "/>
<polyline clip-path="url(#clip2603)" style="stroke:#000000; stroke-width:4; stroke-opacity:1; fill:none" points="
  938.235,317.425 749.555,88.4582 
  "/>
<polyline clip-path="url(#clip2603)" style="stroke:#000000; stroke-width:4; stroke-opacity:1; fill:none" points="
  938.235,317.425 938.235,88.4582 
  "/>
<polyline clip-path="url(#clip2603)" style="stroke:#000000; stroke-width:4; stroke-opacity:1; fill:none" points="
  938.235,317.425 1126.92,317.425 
  "/>
<polyline clip-path="url(#clip2603)" style="stroke:#000000; stroke-width:4; stroke-opacity:1; fill:none" points="
  938.235,317.425 1315.6,317.425 
  "/>
<polyline clip-path="url(#clip2603)" style="stroke:#000000; stroke-width:4; stroke-opacity:1; fill:none" points="
  938.235,317.425 1504.28,546.392 
  "/>
<polyline clip-path="url(#clip2603)" style="stroke:#000000; stroke-width:4; stroke-opacity:1; fill:none" points="
  1126.92,1004.33 1692.96,775.359 
  "/>
<polyline clip-path="url(#clip2603)" style="stroke:#000000; stroke-width:4; stroke-opacity:1; fill:none" points="
  1315.6,775.359 1692.96,775.359 
  "/>
<polyline clip-path="url(#clip2603)" style="stroke:#000000; stroke-width:4; stroke-opacity:1; fill:none" points="
  1504.28,1233.29 1881.64,1233.29 
  "/>
<polyline clip-path="url(#clip2603)" style="stroke:#000000; stroke-width:4; stroke-opacity:1; fill:none" points="
  1692.96,1462.26 2070.32,1462.26 
  "/>
<polyline clip-path="url(#clip2603)" style="stroke:#000000; stroke-width:4; stroke-opacity:1; fill:none" points="
  1881.64,1462.26 2259,1462.26 
  "/>
</svg>
